<?xml version="1.0" encoding="UTF-8" standalone="no"?>
<svg
    viewBox="0 0 16 32"
    xmlns="http://www.w3.org/2000/svg"
    xmlns:svg="http://www.w3.org/2000/svg">

    <rect id="focus-topleft"
        style="opacity:0"
        width="4"
        height="0"
        x="0"
        y="0" />
    <rect id="focus-top"
        style="opacity:0"
        width="12"
        height="0"
        x="2"
        y="0" />
    <rect id="focus-topright"
        style="opacity:0"
        width="4"
        height="0"
        x="28"
        y="0" />
    <rect id="focus-left"
        style="opacity:0"
        width="4"
        height="13"
        x="0"
        y="0" />
    <rect id="focus-center"
        style="opacity:0.4;fill:#2299ff"
        width="12"
        height="13"
        x="2"
        y="0" />
    <rect id="focus-right"
        style="opacity:0"
        width="4"
        height="13"
        x="28"
        y="0" />
    <rect id="focus-bottomleft"
        style="opacity:0"
        width="4"
        height="3"
        x="0"
        y="13" />
    <rect id="focus-bottom"
        style="opacity:1;fill:#44bbff"
        width="12"
        height="3"
        x="2"
        y="13" />
    <rect id="focus-bottomright"
        style="opacity:0"
        width="4"
        height="3"
        x="28"
        y="13" />

    <rect id="hover-topleft"
        style="opacity:0"
        width="4"
        height="0"
        x="0"
        y="0" />
    <rect id="hover-top"
        style="opacity:0"
        width="12"
        height="0"
        x="2"
        y="0" />
    <rect id="hover-topright"
        style="opacity:0"
        width="4"
        height="0"
        x="28"
        y="0" />
    <rect id="hover-left"
        style="opacity:0"
        width="4"
        height="13"
        x="0"
        y="0" />
    <rect id="hover-center"
        style="opacity:0.4;fill:#4499ff"
        width="12"
        height="13"
        x="2"
        y="0" />
    <rect id="hover-right"
        style="opacity:0"
        width="4"
        height="13"
        x="28"
        y="0" />
    <rect id="hover-bottomleft"
        style="opacity:0"
        width="4"
        height="3"
        x="0"
        y="13" />
    <rect id="hover-bottom"
        style="opacity:1;fill:#4499ff"
        width="12"
        height="3"
        x="2"
        y="13" />
    <rect id="hover-bottomright"
        style="opacity:0"
        width="4"
        height="3"
        x="28"
        y="13" />

    <rect id="progress-topleft"
        style="opacity:0"
        width="4"
        height="0"
        x="0"
        y="0" />
    <rect id="progress-top"
        style="opacity:0"
        width="12"
        height="0"
        x="2"
        y="0" />
    <rect id="progress-topright"
        style="opacity:0"
        width="4"
        height="0"
        x="28"
        y="0" />
    <rect id="progress-left"
        style="opacity:0"
        width="4"
        height="13"
        x="0"
        y="0" />
    <rect id="progress-center"
        style="opacity:0.4;fill:#00ff00"
        width="12"
        height="13"
        x="2"
        y="0" />
    <rect id="progress-right"
        style="opacity:0"
        width="4"
        height="13"
        x="28"
        y="0" />
    <rect id="progress-bottomleft"
        style="opacity:0"
        width="4"
        height="3"
        x="0"
        y="13" />
    <rect id="progress-bottom"
        style="opacity:1;fill:#00ff00"
        width="12"
        height="3"
        x="2"
        y="13" />
    <rect id="progress-bottomright"
        style="opacity:0"
        width="4"
        height="3"
        x="28"
        y="13" />

    <rect id="attention-topleft"
        style="opacity:0"
        width="4"
        height="0"
        x="0"
        y="0" />
    <rect id="attention-top"
        style="opacity:0"
        width="12"
        height="0"
        x="2"
        y="0" />
    <rect id="attention-topright"
        style="opacity:0"
        width="4"
        height="0"
        x="28"
        y="0" />
    <rect id="attention-left"
        style="opacity:0"
        width="4"
        height="13"
        x="0"
        y="0" />
    <rect id="attention-center"
        style="opacity:0.4;fill:#ff6600"
        width="12"
        height="13"
        x="2"
        y="0" />
    <rect id="attention-right"
        style="opacity:0"
        width="4"
        height="13"
        x="28"
        y="0" />
    <rect id="attention-bottomleft"
        style="opacity:0"
        width="4"
        height="3"
        x="0"
        y="13" />
    <rect id="attention-bottom"
        style="opacity:1;fill:#ff6600"
        width="12"
        height="3"
        x="2"
        y="13" />
    <rect id="attention-bottomright"
        style="opacity:0"
        width="4"
        height="3"
        x="28"
        y="13" />

    <rect id="normal-topleft"
        style="opacity:0"
        width="4"
        height="0"
        x="0"
        y="0" />
    <rect id="normal-top"
        style="opacity:0"
        width="12"
        height="0"
        x="2"
        y="0" />
    <rect id="normal-topright"
        style="opacity:0"
        width="4"
        height="0"
        x="28"
        y="0" />
    <rect id="normal-left"
        style="opacity:0"
        width="4"
        height="13"
        x="0"
        y="0" />
    <rect id="normal-center"
        style="opacity:0"
        width="12"
        height="13"
        x="2"
        y="0" />
    <rect id="normal-right"
        style="opacity:0"
        width="4"
        height="13"
        x="28"
        y="0" />
    <rect id="normal-bottomleft"
        style="opacity:0"
        width="4"
        height="3"
        x="0"
        y="13" />
    <rect id="normal-bottom"
        style="opacity:1;fill:#777777"
        width="12"
        height="3"
        x="2"
        y="13" />
    <rect id="normal-bottomright"
        style="opacity:0"
        width="4"
        height="3"
        x="28"
        y="13" />

    <rect id="minimized-topleft"
        style="opacity:0"
        width="4"
        height="0"
        x="0"
        y="0" />
    <rect id="minimized-top"
        style="opacity:0"
        width="12"
        height="0"
        x="2"
        y="0" />
    <rect id="minimized-topright"
        style="opacity:0"
        width="4"
        height="0"
        x="28"
        y="0" />
    <rect id="minimized-left"
        style="opacity:0"
        width="4"
        height="13"
        x="0"
        y="0" />
    <rect id="minimized-center"
        style="opacity:0"
        width="12"
        height="13"
        x="2"
        y="0" />
    <rect id="minimized-right"
        style="opacity:0"
        width="4"
        height="13"
        x="28"
        y="0" />
    <rect id="minimized-bottomleft"
        style="opacity:0"
        width="4"
        height="3"
        x="0"
        y="13" />
    <rect id="minimized-bottom"
        style="opacity:1;fill:#777777"
        width="12"
        height="3"
        x="2"
        y="13" />
    <rect id="minimized-bottomright"
        style="opacity:0"
        width="4"
        height="3"
        x="28"
        y="13" />

    <rect id="group-expander-bottom"
        style="opacity:1;fill:#000000"
        width="4"
        height="3"
        x="14"
        y="13" />
</svg>
